<?xml version="1.0" encoding="utf-8" standalone="no"?>
<!DOCTYPE svg PUBLIC "-//W3C//DTD SVG 1.1//EN"
  "http://www.w3.org/Graphics/SVG/1.1/DTD/svg11.dtd">
<svg xmlns:xlink="http://www.w3.org/1999/xlink" width="900pt" height="599.976pt" viewBox="0 0 900 599.976" xmlns="http://www.w3.org/2000/svg" version="1.1">
 <metadata>
  <rdf:RDF xmlns:dc="http://purl.org/dc/elements/1.1/" xmlns:cc="http://creativecommons.org/ns#" xmlns:rdf="http://www.w3.org/1999/02/22-rdf-syntax-ns#">
   <cc:Work>
    <dc:type rdf:resource="http://purl.org/dc/dcmitype/StillImage"/>
    <dc:date>2022-06-13T14:34:50.117101</dc:date>
    <dc:format>image/svg+xml</dc:format>
    <dc:creator>
     <cc:Agent>
      <dc:title>Matplotlib v3.5.2, https://matplotlib.org/</dc:title>
     </cc:Agent>
    </dc:creator>
   </cc:Work>
  </rdf:RDF>
 </metadata>
 <defs>
  <style type="text/css">*{stroke-linejoin: round; stroke-linecap: butt}</style>
 </defs>
 <g id="figure_1">
  <g id="patch_1">
   <path d="M 0 599.976 
L 900 599.976 
L 900 0 
L 0 0 
L 0 599.976 
z
" style="fill: none"/>
  </g>
  <g id="axes_1">
   <g id="patch_2">
    <path d="M 150.03 536.258549 
L 745.2 536.258549 
L 745.2 63.717451 
L 150.03 63.717451 
L 150.03 536.258549 
z
" style="fill: none"/>
   </g>
   <g id="matplotlib.axis_1">
    <g id="xtick_1">
     <g id="line2d_1">
      <defs>
       <path id="m995528d345" d="M 0 0 
L 0 -9.388 
" style="stroke: #000000; stroke-width: 3"/>
      </defs>
      <g>
       <use xlink:href="#m995528d345" x="247.421455" y="536.258549" style="stroke: #000000; stroke-width: 3"/>
      </g>
     </g>
     <g id="line2d_2">
      <defs>
       <path id="m967fd71e65" d="M 0 0 
L 0 9.388 
" style="stroke: #000000; stroke-width: 3"/>
      </defs>
      <g>
       <use xlink:href="#m967fd71e65" x="247.421455" y="63.717451" style="stroke: #000000; stroke-width: 3"/>
      </g>
     </g>
     <g id="text_1">
      <!-- 4.4 -->
      <g transform="translate(226.573798 568.130424)scale(0.3 -0.3)">
       <defs>
        <path id="TeXGyreHeros-Regular-34" d="M 3328 1088 
L 3328 1594 
L 2656 1594 
L 2656 4538 
L 2240 4538 
L 179 1683 
L 179 1088 
L 2093 1088 
L 2093 0 
L 2656 0 
L 2656 1088 
L 3328 1088 
z
M 2093 1594 
L 672 1594 
L 2093 3578 
L 2093 1594 
z
" transform="scale(0.015625)"/>
        <path id="TeXGyreHeros-Regular-2e" d="M 1222 0 
L 1222 666 
L 557 666 
L 557 0 
L 1222 0 
z
" transform="scale(0.015625)"/>
       </defs>
       <use xlink:href="#TeXGyreHeros-Regular-34"/>
       <use xlink:href="#TeXGyreHeros-Regular-2e" x="55.599991"/>
       <use xlink:href="#TeXGyreHeros-Regular-34" x="83.399979"/>
      </g>
     </g>
    </g>
    <g id="xtick_2">
     <g id="line2d_3">
      <g>
       <use xlink:href="#m995528d345" x="404.329909" y="536.258549" style="stroke: #000000; stroke-width: 3"/>
      </g>
     </g>
     <g id="line2d_4">
      <g>
       <use xlink:href="#m967fd71e65" x="404.329909" y="63.717451" style="stroke: #000000; stroke-width: 3"/>
      </g>
     </g>
     <g id="text_2">
      <!-- 4.6 -->
      <g transform="translate(383.482253 568.130424)scale(0.3 -0.3)">
       <defs>
        <path id="TeXGyreHeros-Regular-36" d="M 3283 1408 
C 3283 2253 2707 2822 1894 2822 
C 1446 2822 1094 2650 851 2317 
C 858 3424 1216 4038 1862 4038 
C 2259 4038 2534 3789 2624 3354 
L 3187 3354 
C 3078 4096 2592 4538 1901 4538 
C 845 4538 275 3648 275 2067 
C 275 653 762 -96 1798 -96 
C 2662 -96 3283 518 3283 1408 
z
M 2707 1363 
C 2707 794 2323 403 1805 403 
C 1280 403 883 813 883 1395 
C 883 1958 1267 2323 1824 2323 
C 2368 2323 2707 1971 2707 1363 
z
" transform="scale(0.015625)"/>
       </defs>
       <use xlink:href="#TeXGyreHeros-Regular-34"/>
       <use xlink:href="#TeXGyreHeros-Regular-2e" x="55.599991"/>
       <use xlink:href="#TeXGyreHeros-Regular-36" x="83.399979"/>
      </g>
     </g>
    </g>
    <g id="xtick_3">
     <g id="line2d_5">
      <g>
       <use xlink:href="#m995528d345" x="561.238364" y="536.258549" style="stroke: #000000; stroke-width: 3"/>
      </g>
     </g>
     <g id="line2d_6">
      <g>
       <use xlink:href="#m967fd71e65" x="561.238364" y="63.717451" style="stroke: #000000; stroke-width: 3"/>
      </g>
     </g>
     <g id="text_3">
      <!-- 4.8 -->
      <g transform="translate(540.390707 568.130424)scale(0.3 -0.3)">
       <defs>
        <path id="TeXGyreHeros-Regular-38" d="M 3283 1280 
C 3283 1786 3027 2138 2502 2387 
C 2970 2669 3123 2899 3123 3328 
C 3123 4038 2566 4538 1760 4538 
C 960 4538 397 4038 397 3328 
C 397 2906 550 2675 1011 2387 
C 493 2138 237 1786 237 1286 
C 237 454 864 -96 1760 -96 
C 2656 -96 3283 454 3283 1280 
z
M 2547 3315 
C 2547 2893 2234 2611 1760 2611 
C 1286 2611 973 2893 973 3322 
C 973 3757 1286 4038 1760 4038 
C 2240 4038 2547 3757 2547 3315 
z
M 2707 1274 
C 2707 736 2323 403 1747 403 
C 1197 403 813 742 813 1274 
C 813 1805 1197 2138 1760 2138 
C 2323 2138 2707 1805 2707 1274 
z
" transform="scale(0.015625)"/>
       </defs>
       <use xlink:href="#TeXGyreHeros-Regular-34"/>
       <use xlink:href="#TeXGyreHeros-Regular-2e" x="55.599991"/>
       <use xlink:href="#TeXGyreHeros-Regular-38" x="83.399979"/>
      </g>
     </g>
    </g>
    <g id="xtick_4">
     <g id="line2d_7">
      <g>
       <use xlink:href="#m995528d345" x="718.146818" y="536.258549" style="stroke: #000000; stroke-width: 3"/>
      </g>
     </g>
     <g id="line2d_8">
      <g>
       <use xlink:href="#m967fd71e65" x="718.146818" y="63.717451" style="stroke: #000000; stroke-width: 3"/>
      </g>
     </g>
     <g id="text_4">
      <!-- 5.0 -->
      <g transform="translate(697.299162 568.130424)scale(0.3 -0.3)">
       <defs>
        <path id="TeXGyreHeros-Regular-35" d="M 3283 1504 
C 3283 2400 2688 2989 1818 2989 
C 1498 2989 1242 2906 979 2714 
L 1158 3885 
L 3046 3885 
L 3046 4442 
L 704 4442 
L 365 2067 
L 883 2067 
C 1146 2381 1363 2490 1715 2490 
C 2323 2490 2707 2099 2707 1427 
C 2707 774 2330 403 1715 403 
C 1222 403 922 653 787 1165 
L 224 1165 
C 410 262 922 -96 1728 -96 
C 2643 -96 3283 544 3283 1504 
z
" transform="scale(0.015625)"/>
        <path id="TeXGyreHeros-Regular-30" d="M 3245 2182 
C 3245 3757 2746 4538 1760 4538 
C 781 4538 275 3744 275 2221 
C 275 691 787 -96 1760 -96 
C 2720 -96 3245 691 3245 2182 
z
M 2669 2234 
C 2669 947 2374 371 1747 371 
C 1152 371 851 973 851 2214 
C 851 3456 1152 4038 1760 4038 
C 2368 4038 2669 3450 2669 2234 
z
" transform="scale(0.015625)"/>
       </defs>
       <use xlink:href="#TeXGyreHeros-Regular-35"/>
       <use xlink:href="#TeXGyreHeros-Regular-2e" x="55.599991"/>
       <use xlink:href="#TeXGyreHeros-Regular-30" x="83.399979"/>
      </g>
     </g>
    </g>
   </g>
   <g id="matplotlib.axis_2">
    <g id="ytick_1">
     <g id="line2d_9">
      <defs>
       <path id="m6797473c07" d="M 0 0 
L 9.388 0 
" style="stroke: #000000; stroke-width: 3"/>
      </defs>
      <g>
       <use xlink:href="#m6797473c07" x="150.03" y="414.89724" style="stroke: #000000; stroke-width: 3"/>
      </g>
     </g>
     <g id="line2d_10">
      <defs>
       <path id="m73bdb70fbd" d="M 0 0 
L -9.388 0 
" style="stroke: #000000; stroke-width: 3"/>
      </defs>
      <g>
       <use xlink:href="#m73bdb70fbd" x="745.2" y="414.89724" style="stroke: #000000; stroke-width: 3"/>
      </g>
     </g>
     <g id="text_5">
      <!-- $\mathdefault{10^{-4}}$ -->
      <g transform="translate(93.43 425.833178)scale(0.3 -0.3)">
       <defs>
        <path id="TeXGyreHeros-Regular-31" d="M 2221 0 
L 2221 4538 
L 1850 4538 
C 1651 3840 1523 3744 653 3635 
L 653 3232 
L 1658 3232 
L 1658 0 
L 2221 0 
z
" transform="scale(0.015625)"/>
        <path id="TeXGyreHeros-Regular-2d" d="M 1818 1536 
L 1818 1997 
L 294 1997 
L 294 1536 
L 1818 1536 
z
" transform="scale(0.015625)"/>
       </defs>
       <use xlink:href="#TeXGyreHeros-Regular-31" transform="translate(0 0.68125)"/>
       <use xlink:href="#TeXGyreHeros-Regular-30" transform="translate(55.599991 0.68125)"/>
       <use xlink:href="#TeXGyreHeros-Regular-2d" transform="translate(112.117091 37.365625)scale(0.7)"/>
       <use xlink:href="#TeXGyreHeros-Regular-34" transform="translate(135.427083 37.365625)scale(0.7)"/>
      </g>
     </g>
    </g>
    <g id="ytick_2">
     <g id="line2d_11">
      <g>
       <use xlink:href="#m6797473c07" x="150.03" y="285.264996" style="stroke: #000000; stroke-width: 3"/>
      </g>
     </g>
     <g id="line2d_12">
      <g>
       <use xlink:href="#m73bdb70fbd" x="745.2" y="285.264996" style="stroke: #000000; stroke-width: 3"/>
      </g>
     </g>
     <g id="text_6">
      <!-- $\mathdefault{10^{-2}}$ -->
      <g transform="translate(93.43 296.200933)scale(0.3 -0.3)">
       <defs>
        <path id="TeXGyreHeros-Regular-32" d="M 3270 3206 
C 3270 3974 2675 4538 1818 4538 
C 890 4538 352 4064 320 2963 
L 883 2963 
C 928 3725 1242 4045 1798 4045 
C 2310 4045 2694 3680 2694 3194 
C 2694 2835 2483 2528 2080 2298 
L 1491 1965 
C 544 1427 269 998 218 0 
L 3238 0 
L 3238 557 
L 851 557 
C 909 928 1114 1165 1670 1491 
L 2310 1837 
C 2944 2176 3270 2650 3270 3206 
z
" transform="scale(0.015625)"/>
       </defs>
       <use xlink:href="#TeXGyreHeros-Regular-31" transform="translate(0 0.68125)"/>
       <use xlink:href="#TeXGyreHeros-Regular-30" transform="translate(55.599991 0.68125)"/>
       <use xlink:href="#TeXGyreHeros-Regular-2d" transform="translate(112.117091 37.365625)scale(0.7)"/>
       <use xlink:href="#TeXGyreHeros-Regular-32" transform="translate(135.427083 37.365625)scale(0.7)"/>
      </g>
     </g>
    </g>
    <g id="ytick_3">
     <g id="line2d_13">
      <g>
       <use xlink:href="#m6797473c07" x="150.03" y="155.632751" style="stroke: #000000; stroke-width: 3"/>
      </g>
     </g>
     <g id="line2d_14">
      <g>
       <use xlink:href="#m73bdb70fbd" x="745.2" y="155.632751" style="stroke: #000000; stroke-width: 3"/>
      </g>
     </g>
     <g id="text_7">
      <!-- $\mathdefault{10^{0}}$ -->
      <g transform="translate(100.33 166.568689)scale(0.3 -0.3)">
       <use xlink:href="#TeXGyreHeros-Regular-31" transform="translate(0 0.68125)"/>
       <use xlink:href="#TeXGyreHeros-Regular-30" transform="translate(55.599991 0.68125)"/>
       <use xlink:href="#TeXGyreHeros-Regular-30" transform="translate(112.117091 37.365625)scale(0.7)"/>
      </g>
     </g>
    </g>
   </g>
   <g id="line2d_15">
    <defs>
     <path id="m2e3aad0a90" d="M 0 6 
C 1.591219 6 3.117479 5.367802 4.242641 4.242641 
C 5.367802 3.117479 6 1.591219 6 0 
C 6 -1.591219 5.367802 -3.117479 4.242641 -4.242641 
C 3.117479 -5.367802 1.591219 -6 0 -6 
C -1.591219 -6 -3.117479 -5.367802 -4.242641 -4.242641 
C -5.367802 -3.117479 -6 -1.591219 -6 0 
C -6 1.591219 -5.367802 3.117479 -4.242641 4.242641 
C -3.117479 5.367802 -1.591219 6 0 6 
z
" style="stroke: #ff0000"/>
    </defs>
    <g clip-path="url(#pbb72d58b30)">
     <use xlink:href="#m2e3aad0a90" x="177.083182" y="512.863522" style="fill: #ff0000; stroke: #ff0000"/>
     <use xlink:href="#m2e3aad0a90" x="206.488814" y="497.958991" style="fill: #ff0000; stroke: #ff0000"/>
     <use xlink:href="#m2e3aad0a90" x="236.410335" y="481.635363" style="fill: #ff0000; stroke: #ff0000"/>
     <use xlink:href="#m2e3aad0a90" x="266.86144" y="463.800183" style="fill: #ff0000; stroke: #ff0000"/>
     <use xlink:href="#m2e3aad0a90" x="297.856315" y="445.431033" style="fill: #ff0000; stroke: #ff0000"/>
     <use xlink:href="#m2e3aad0a90" x="329.409656" y="426.170397" style="fill: #ff0000; stroke: #ff0000"/>
     <use xlink:href="#m2e3aad0a90" x="361.536694" y="405.05387" style="fill: #ff0000; stroke: #ff0000"/>
     <use xlink:href="#m2e3aad0a90" x="394.253219" y="382.692132" style="fill: #ff0000; stroke: #ff0000"/>
     <use xlink:href="#m2e3aad0a90" x="427.575606" y="358.528647" style="fill: #ff0000; stroke: #ff0000"/>
     <use xlink:href="#m2e3aad0a90" x="461.520841" y="332.536086" style="fill: #ff0000; stroke: #ff0000"/>
     <use xlink:href="#m2e3aad0a90" x="496.106552" y="303.743068" style="fill: #ff0000; stroke: #ff0000"/>
     <use xlink:href="#m2e3aad0a90" x="531.351039" y="272.744209" style="fill: #ff0000; stroke: #ff0000"/>
     <use xlink:href="#m2e3aad0a90" x="567.273304" y="240.219498" style="fill: #ff0000; stroke: #ff0000"/>
     <use xlink:href="#m2e3aad0a90" x="603.893089" y="204.670536" style="fill: #ff0000; stroke: #ff0000"/>
     <use xlink:href="#m2e3aad0a90" x="641.230909" y="167.37318" style="fill: #ff0000; stroke: #ff0000"/>
     <use xlink:href="#m2e3aad0a90" x="679.308092" y="128.884482" style="fill: #ff0000; stroke: #ff0000"/>
     <use xlink:href="#m2e3aad0a90" x="718.146818" y="88.710912" style="fill: #ff0000; stroke: #ff0000"/>
    </g>
   </g>
   <g id="line2d_16">
    <path d="M 177.083182 514.779408 
L 206.488814 498.757618 
L 236.410335 481.850565 
L 266.86144 463.982795 
L 297.856315 445.070026 
L 329.409656 425.017821 
L 361.536694 403.72001 
L 394.253219 381.056811 
L 427.575606 356.892575 
L 461.520841 331.073068 
L 496.106552 303.422176 
L 531.351039 273.737886 
L 567.273304 241.787335 
L 603.893089 207.300695 
L 641.230909 169.963534 
L 679.308092 129.407195 
L 718.146818 85.196592 
" clip-path="url(#pbb72d58b30)" style="fill: none; stroke: #000000; stroke-width: 3; stroke-linecap: square"/>
   </g>
   <g id="patch_3">
    <path d="M 150.03 536.258549 
L 150.03 63.717451 
" style="fill: none; stroke: #000000; stroke-width: 3; stroke-linejoin: miter; stroke-linecap: square"/>
   </g>
   <g id="patch_4">
    <path d="M 745.2 536.258549 
L 745.2 63.717451 
" style="fill: none; stroke: #000000; stroke-width: 3; stroke-linejoin: miter; stroke-linecap: square"/>
   </g>
   <g id="patch_5">
    <path d="M 150.03 536.258549 
L 745.2 536.258549 
" style="fill: none; stroke: #000000; stroke-width: 3; stroke-linejoin: miter; stroke-linecap: square"/>
   </g>
   <g id="patch_6">
    <path d="M 150.03 63.717451 
L 745.2 63.717451 
" style="fill: none; stroke: #000000; stroke-width: 3; stroke-linejoin: miter; stroke-linecap: square"/>
   </g>
  </g>
 </g>
 <defs>
  <clipPath id="pbb72d58b30">
   <rect x="150.03" y="63.717451" width="595.17" height="472.541098"/>
  </clipPath>
 </defs>
</svg>
